<mxfile host="app.diagrams.net" agent="Mozilla/5.0 (X11; Linux x86_64; rv:131.0) Gecko/20100101 Firefox/131.0" version="24.8.4">
  <diagram name="Page-1" id="55a83fd1-7818-8e21-69c5-c3457e3827bb">
    <mxGraphModel dx="942" dy="898" grid="1" gridSize="10" guides="1" tooltips="1" connect="1" arrows="1" fold="1" page="1" pageScale="1" pageWidth="1169" pageHeight="827" background="none" math="0" shadow="0">
      <root>
        <mxCell id="0" />
        <mxCell id="1" parent="0" />
        <mxCell id="69ecfefc5c41e42c-2" value="Internet" style="image;html=1;labelBackgroundColor=#ffffff;image=img/lib/clip_art/networking/Cloud_128x128.png;rounded=1;shadow=0;comic=0;strokeWidth=2;fontSize=12;labelPosition=center;verticalLabelPosition=top;align=center;verticalAlign=bottom;" parent="1" vertex="1">
          <mxGeometry x="50" y="50" width="60" height="30" as="geometry" />
        </mxCell>
        <mxCell id="69ecfefc5c41e42c-3" value="Firewall" style="html=1;labelBackgroundColor=default;image=img/lib/clip_art/networking/Firewall_02_128x128.png;rounded=1;shadow=0;comic=0;strokeWidth=2;fontSize=12;labelPosition=center;verticalLabelPosition=top;align=center;verticalAlign=bottom;shape=image;connectable=1;" parent="1" vertex="1">
          <mxGeometry x="390" y="50" width="60" height="30" as="geometry" />
        </mxCell>
        <mxCell id="zzr18HtaR_U83JQj7Mxr-97" value="" style="html=1;fillColor=#CCCCCC;strokeColor=#6881B3;gradientColor=none;gradientDirection=north;strokeWidth=2;shape=connector;html=1;labelBackgroundColor=none;endArrow=none;fontFamily=Verdana;fontSize=12;fontColor=#000000;exitX=0.5;exitY=0;exitDx=0;exitDy=0;" parent="1" source="5ZQNPwiMjaQiaodXeL4T-1" target="69ecfefc5c41e42c-3" edge="1">
          <mxGeometry width="100" height="100" relative="1" as="geometry">
            <mxPoint x="440" y="110" as="sourcePoint" />
            <mxPoint x="90" y="480" as="targetPoint" />
          </mxGeometry>
        </mxCell>
        <mxCell id="zzr18HtaR_U83JQj7Mxr-98" value="" style="html=1;fillColor=#CCCCCC;strokeColor=#6881B3;gradientColor=none;gradientDirection=north;strokeWidth=2;shape=connector;html=1;labelBackgroundColor=none;endArrow=none;fontFamily=Verdana;fontSize=12;fontColor=#000000;" parent="1" source="69ecfefc5c41e42c-3" target="5ZQNPwiMjaQiaodXeL4T-6" edge="1">
          <mxGeometry width="100" height="100" relative="1" as="geometry">
            <mxPoint x="75" y="470" as="sourcePoint" />
            <mxPoint x="183.92857142857156" y="57.88831360946733" as="targetPoint" />
          </mxGeometry>
        </mxCell>
        <mxCell id="zzr18HtaR_U83JQj7Mxr-100" value="" style="html=1;fillColor=#CCCCCC;strokeColor=#6881B3;gradientColor=none;gradientDirection=north;strokeWidth=2;shape=connector;html=1;labelBackgroundColor=none;endArrow=none;fontFamily=Verdana;fontSize=12;fontColor=#000000;exitX=0;exitY=0.5;exitDx=0;exitDy=0;" parent="1" source="5ZQNPwiMjaQiaodXeL4T-6" target="69ecfefc5c41e42c-2" edge="1">
          <mxGeometry width="100" height="100" relative="1" as="geometry">
            <mxPoint x="178.57142857142867" y="50" as="sourcePoint" />
            <mxPoint x="65" y="240" as="targetPoint" />
          </mxGeometry>
        </mxCell>
        <mxCell id="5ZQNPwiMjaQiaodXeL4T-1" value="Reverse proxy" style="image;html=1;image=img/lib/clip_art/networking/Print_Server_128x128.png" vertex="1" parent="1">
          <mxGeometry x="390" y="170" width="60" height="30" as="geometry" />
        </mxCell>
        <mxCell id="5ZQNPwiMjaQiaodXeL4T-4" value="Firewall" style="html=1;labelBackgroundColor=default;image=img/lib/clip_art/networking/Firewall_02_128x128.png;rounded=1;shadow=0;comic=0;strokeWidth=2;fontSize=12;labelPosition=center;verticalLabelPosition=bottom;align=center;verticalAlign=top;shape=image;connectable=1;" vertex="1" parent="1">
          <mxGeometry x="230" y="170" width="60" height="30" as="geometry" />
        </mxCell>
        <mxCell id="5ZQNPwiMjaQiaodXeL4T-5" value="Firewall" style="html=1;labelBackgroundColor=default;image=img/lib/clip_art/networking/Firewall_02_128x128.png;rounded=1;shadow=0;comic=0;strokeWidth=2;fontSize=12;labelPosition=center;verticalLabelPosition=bottom;align=center;verticalAlign=top;shape=image;connectable=1;" vertex="1" parent="1">
          <mxGeometry x="570" y="170" width="60" height="30" as="geometry" />
        </mxCell>
        <mxCell id="5ZQNPwiMjaQiaodXeL4T-6" value="modem" style="image;html=1;image=img/lib/clip_art/networking/Modem_128x128.png;labelPosition=center;verticalLabelPosition=top;align=center;verticalAlign=bottom;" vertex="1" parent="1">
          <mxGeometry x="169.99857142857155" y="49.99831360946733" width="60" height="30" as="geometry" />
        </mxCell>
        <mxCell id="5ZQNPwiMjaQiaodXeL4T-7" value="Firewall" style="html=1;labelBackgroundColor=default;image=img/lib/clip_art/networking/Firewall_02_128x128.png;rounded=1;shadow=0;comic=0;strokeWidth=2;fontSize=12;labelPosition=center;verticalLabelPosition=bottom;align=center;verticalAlign=top;shape=image;connectable=1;" vertex="1" parent="1">
          <mxGeometry x="390" y="350" width="60" height="30" as="geometry" />
        </mxCell>
        <mxCell id="5ZQNPwiMjaQiaodXeL4T-12" value="Public services" style="image;html=1;image=img/lib/clip_art/networking/Print_Server_128x128.png" vertex="1" parent="1">
          <mxGeometry x="730" y="170" width="60" height="30" as="geometry" />
        </mxCell>
        <mxCell id="5ZQNPwiMjaQiaodXeL4T-14" value="" style="endArrow=none;html=1;rounded=0;entryX=1;entryY=0.5;entryDx=0;entryDy=0;" edge="1" parent="1" source="5ZQNPwiMjaQiaodXeL4T-12" target="5ZQNPwiMjaQiaodXeL4T-5">
          <mxGeometry width="50" height="50" relative="1" as="geometry">
            <mxPoint x="559.2893218813452" y="235" as="sourcePoint" />
            <mxPoint x="559.2893218813452" y="185" as="targetPoint" />
          </mxGeometry>
        </mxCell>
        <mxCell id="5ZQNPwiMjaQiaodXeL4T-15" value="LAN devices" style="image;html=1;image=img/lib/clip_art/networking/Print_Server_128x128.png" vertex="1" parent="1">
          <mxGeometry x="390" y="440" width="60" height="30" as="geometry" />
        </mxCell>
        <mxCell id="5ZQNPwiMjaQiaodXeL4T-16" value="IoT devices" style="image;html=1;image=img/lib/clip_art/networking/Print_Server_128x128.png" vertex="1" parent="1">
          <mxGeometry x="70" y="170" width="60" height="30" as="geometry" />
        </mxCell>
        <mxCell id="5ZQNPwiMjaQiaodXeL4T-20" value="Guest network" style="html=1;labelBackgroundColor=default;image=img/lib/clip_art/networking/Print_Server_128x128.png;rounded=1;shadow=0;comic=0;strokeWidth=2;fontSize=12;labelPosition=center;verticalLabelPosition=bottom;align=center;verticalAlign=top;shape=image;connectable=1;" vertex="1" parent="1">
          <mxGeometry x="510" y="350" width="60" height="30" as="geometry" />
        </mxCell>
        <mxCell id="5ZQNPwiMjaQiaodXeL4T-21" value="" style="endArrow=none;html=1;rounded=0;entryX=1;entryY=0.5;entryDx=0;entryDy=0;exitX=0;exitY=0.5;exitDx=0;exitDy=0;" edge="1" parent="1" source="5ZQNPwiMjaQiaodXeL4T-20" target="5ZQNPwiMjaQiaodXeL4T-7">
          <mxGeometry width="50" height="50" relative="1" as="geometry">
            <mxPoint x="480" y="400" as="sourcePoint" />
            <mxPoint x="520" y="279.28932188134524" as="targetPoint" />
          </mxGeometry>
        </mxCell>
        <mxCell id="5ZQNPwiMjaQiaodXeL4T-22" value="Trusted mobile devices" style="html=1;labelBackgroundColor=default;image=img/lib/clip_art/networking/Print_Server_128x128.png;rounded=1;shadow=0;comic=0;strokeWidth=2;fontSize=12;labelPosition=center;verticalLabelPosition=bottom;align=center;verticalAlign=top;shape=image;connectable=1;" vertex="1" parent="1">
          <mxGeometry x="290" y="350" width="60" height="30" as="geometry" />
        </mxCell>
        <mxCell id="5ZQNPwiMjaQiaodXeL4T-23" value="" style="endArrow=none;html=1;rounded=0;entryX=0;entryY=0.5;entryDx=0;entryDy=0;exitX=1;exitY=0.5;exitDx=0;exitDy=0;" edge="1" parent="1" source="5ZQNPwiMjaQiaodXeL4T-22" target="5ZQNPwiMjaQiaodXeL4T-7">
          <mxGeometry width="50" height="50" relative="1" as="geometry">
            <mxPoint x="320" y="329.28932188134524" as="sourcePoint" />
            <mxPoint x="320" y="279.28932188134524" as="targetPoint" />
          </mxGeometry>
        </mxCell>
        <mxCell id="5ZQNPwiMjaQiaodXeL4T-24" value="" style="endArrow=none;html=1;rounded=0;entryX=0.5;entryY=1;entryDx=0;entryDy=0;" edge="1" parent="1" source="5ZQNPwiMjaQiaodXeL4T-15" target="5ZQNPwiMjaQiaodXeL4T-7">
          <mxGeometry width="50" height="50" relative="1" as="geometry">
            <mxPoint x="420" y="409.28932188134524" as="sourcePoint" />
            <mxPoint x="420" y="390" as="targetPoint" />
          </mxGeometry>
        </mxCell>
        <mxCell id="5ZQNPwiMjaQiaodXeL4T-25" value="" style="endArrow=none;html=1;rounded=0;entryX=0;entryY=0.5;entryDx=0;entryDy=0;" edge="1" parent="1" source="5ZQNPwiMjaQiaodXeL4T-16" target="5ZQNPwiMjaQiaodXeL4T-4">
          <mxGeometry width="50" height="50" relative="1" as="geometry">
            <mxPoint x="165" y="235" as="sourcePoint" />
            <mxPoint x="235.71067811865476" y="185" as="targetPoint" />
          </mxGeometry>
        </mxCell>
        <mxCell id="5ZQNPwiMjaQiaodXeL4T-27" value="" style="endArrow=none;html=1;rounded=0;entryX=0.5;entryY=1;entryDx=0;entryDy=0;exitX=0.5;exitY=0;exitDx=0;exitDy=0;" edge="1" parent="1" source="5ZQNPwiMjaQiaodXeL4T-7" target="5ZQNPwiMjaQiaodXeL4T-1">
          <mxGeometry width="50" height="50" relative="1" as="geometry">
            <mxPoint x="250" y="470" as="sourcePoint" />
            <mxPoint x="300" y="420" as="targetPoint" />
          </mxGeometry>
        </mxCell>
        <mxCell id="5ZQNPwiMjaQiaodXeL4T-28" value="" style="endArrow=none;html=1;rounded=0;entryX=0;entryY=0.5;entryDx=0;entryDy=0;exitX=1;exitY=0.5;exitDx=0;exitDy=0;" edge="1" parent="1" source="5ZQNPwiMjaQiaodXeL4T-4" target="5ZQNPwiMjaQiaodXeL4T-1">
          <mxGeometry width="50" height="50" relative="1" as="geometry">
            <mxPoint x="100" y="410" as="sourcePoint" />
            <mxPoint x="150" y="360" as="targetPoint" />
          </mxGeometry>
        </mxCell>
        <mxCell id="5ZQNPwiMjaQiaodXeL4T-29" value="" style="endArrow=none;html=1;rounded=0;entryX=0;entryY=0.5;entryDx=0;entryDy=0;exitX=1;exitY=0.5;exitDx=0;exitDy=0;" edge="1" parent="1" source="5ZQNPwiMjaQiaodXeL4T-1" target="5ZQNPwiMjaQiaodXeL4T-5">
          <mxGeometry width="50" height="50" relative="1" as="geometry">
            <mxPoint x="240" y="510" as="sourcePoint" />
            <mxPoint x="290" y="460" as="targetPoint" />
          </mxGeometry>
        </mxCell>
      </root>
    </mxGraphModel>
  </diagram>
</mxfile>
